<?xml version="1.0" encoding="UTF-8"?>
<svg xmlns="http://www.w3.org/2000/svg" version="1.1" width="300" height="300" viewBox="0 0 300 300"><rect x="0" y="0" width="300" height="300" fill="#fefefe"/><g transform="scale(4.918)"><g transform="translate(4.000,4.000)"><path fill-rule="evenodd" d="M8 0L8 1L10 1L10 0ZM16 0L16 2L15 2L15 1L13 1L13 2L12 2L12 1L11 1L11 2L8 2L8 5L9 5L9 6L8 6L8 7L9 7L9 8L8 8L8 9L9 9L9 8L11 8L11 6L10 6L10 5L9 5L9 4L10 4L10 3L11 3L11 4L14 4L14 3L13 3L13 2L15 2L15 6L14 6L14 5L12 5L12 8L13 8L13 9L12 9L12 10L14 10L14 12L13 12L13 11L12 11L12 12L13 12L13 13L11 13L11 12L10 12L10 11L11 11L11 10L10 10L10 11L8 11L8 10L5 10L5 9L4 9L4 8L0 8L0 10L1 10L1 9L2 9L2 11L3 11L3 10L5 10L5 11L4 11L4 13L3 13L3 12L2 12L2 14L1 14L1 13L0 13L0 15L2 15L2 14L4 14L4 13L7 13L7 14L6 14L6 15L7 15L7 14L8 14L8 17L7 17L7 16L5 16L5 15L4 15L4 16L3 16L3 17L2 17L2 16L0 16L0 19L2 19L2 18L3 18L3 17L4 17L4 16L5 16L5 17L7 17L7 18L6 18L6 19L8 19L8 17L9 17L9 18L10 18L10 20L8 20L8 21L7 21L7 20L5 20L5 19L3 19L3 21L1 21L1 22L0 22L0 23L2 23L2 24L0 24L0 26L1 26L1 25L2 25L2 24L4 24L4 25L3 25L3 26L4 26L4 31L3 31L3 29L2 29L2 27L1 27L1 29L0 29L0 31L2 31L2 32L4 32L4 31L5 31L5 29L8 29L8 30L9 30L9 31L7 31L7 30L6 30L6 31L7 31L7 32L5 32L5 35L4 35L4 34L3 34L3 33L2 33L2 35L4 35L4 36L5 36L5 39L4 39L4 38L3 38L3 37L2 37L2 36L1 36L1 37L2 37L2 38L0 38L0 40L2 40L2 38L3 38L3 39L4 39L4 40L6 40L6 41L9 41L9 40L11 40L11 39L12 39L12 38L13 38L13 40L14 40L14 41L16 41L16 42L17 42L17 41L16 41L16 39L17 39L17 40L18 40L18 38L21 38L21 39L19 39L19 41L21 41L21 44L20 44L20 42L19 42L19 45L21 45L21 47L20 47L20 46L18 46L18 44L17 44L17 46L15 46L15 47L14 47L14 48L15 48L15 50L17 50L17 51L16 51L16 52L13 52L13 51L14 51L14 49L13 49L13 46L12 46L12 47L11 47L11 46L10 46L10 43L9 43L9 42L5 42L5 41L4 41L4 42L3 42L3 43L2 43L2 42L1 42L1 41L0 41L0 43L1 43L1 44L3 44L3 45L4 45L4 44L3 44L3 43L8 43L8 44L6 44L6 45L8 45L8 46L10 46L10 47L11 47L11 49L12 49L12 50L11 50L11 51L12 51L12 52L13 52L13 53L16 53L16 52L17 52L17 51L18 51L18 52L19 52L19 51L21 51L21 50L22 50L22 52L21 52L21 53L22 53L22 52L23 52L23 51L24 51L24 49L25 49L25 50L27 50L27 51L25 51L25 53L26 53L26 52L27 52L27 53L28 53L28 51L29 51L29 52L31 52L31 53L35 53L35 52L31 52L31 51L33 51L33 50L34 50L34 46L32 46L32 45L30 45L30 41L31 41L31 40L32 40L32 41L33 41L33 43L32 43L32 42L31 42L31 44L33 44L33 43L34 43L34 44L35 44L35 46L38 46L38 47L36 47L36 48L35 48L35 49L37 49L37 48L38 48L38 50L35 50L35 51L36 51L36 52L37 52L37 53L38 53L38 52L39 52L39 53L40 53L40 52L39 52L39 50L40 50L40 51L41 51L41 52L42 52L42 53L45 53L45 51L43 51L43 50L41 50L41 49L43 49L43 47L42 47L42 46L44 46L44 50L45 50L45 49L48 49L48 50L47 50L47 52L46 52L46 53L47 53L47 52L48 52L48 53L49 53L49 52L50 52L50 53L52 53L52 49L53 49L53 47L52 47L52 46L51 46L51 41L49 41L49 42L48 42L48 41L47 41L47 42L48 42L48 43L47 43L47 44L46 44L46 43L45 43L45 44L44 44L44 42L45 42L45 40L49 40L49 39L51 39L51 40L52 40L52 41L53 41L53 40L52 40L52 39L53 39L53 38L52 38L52 37L53 37L53 36L52 36L52 34L53 34L53 32L51 32L51 31L52 31L52 27L53 27L53 25L52 25L52 24L50 24L50 26L49 26L49 23L48 23L48 22L50 22L50 23L52 23L52 21L53 21L53 20L52 20L52 21L51 21L51 22L50 22L50 21L48 21L48 19L49 19L49 20L51 20L51 18L47 18L47 16L48 16L48 15L47 15L47 14L51 14L51 16L53 16L53 14L52 14L52 12L53 12L53 11L52 11L52 10L53 10L53 8L52 8L52 10L50 10L50 9L51 9L51 8L48 8L48 10L46 10L46 8L44 8L44 7L45 7L45 6L44 6L44 7L43 7L43 3L44 3L44 4L45 4L45 3L44 3L44 1L43 1L43 0L42 0L42 1L41 1L41 0L40 0L40 1L41 1L41 2L43 2L43 3L41 3L41 5L40 5L40 2L39 2L39 3L38 3L38 4L37 4L37 3L35 3L35 2L36 2L36 1L37 1L37 2L38 2L38 0L36 0L36 1L33 1L33 0L27 0L27 2L28 2L28 1L29 1L29 2L31 2L31 5L32 5L32 2L33 2L33 5L34 5L34 7L35 7L35 6L36 6L36 8L34 8L34 9L30 9L30 7L31 7L31 6L30 6L30 7L29 7L29 4L30 4L30 3L29 3L29 4L26 4L26 3L25 3L25 2L26 2L26 0L24 0L24 1L23 1L23 0L22 0L22 1L21 1L21 2L19 2L19 3L16 3L16 2L17 2L17 0ZM18 0L18 1L20 1L20 0ZM31 1L31 2L32 2L32 1ZM11 2L11 3L12 3L12 2ZM21 2L21 5L22 5L22 4L23 4L23 7L22 7L22 6L21 6L21 8L20 8L20 6L19 6L19 7L18 7L18 5L17 5L17 4L16 4L16 6L15 6L15 8L14 8L14 10L15 10L15 8L17 8L17 9L16 9L16 11L15 11L15 12L14 12L14 14L13 14L13 16L14 16L14 18L13 18L13 21L12 21L12 18L11 18L11 20L10 20L10 21L8 21L8 24L9 24L9 30L11 30L11 31L10 31L10 33L11 33L11 36L12 36L12 35L13 35L13 34L15 34L15 35L14 35L14 36L13 36L13 37L14 37L14 40L15 40L15 37L16 37L16 38L17 38L17 37L16 37L16 36L17 36L17 35L16 35L16 32L18 32L18 33L20 33L20 34L19 34L19 35L20 35L20 36L21 36L21 38L22 38L22 37L26 37L26 39L27 39L27 37L28 37L28 40L29 40L29 41L30 41L30 39L31 39L31 37L33 37L33 36L32 36L32 35L30 35L30 34L29 34L29 33L28 33L28 32L29 32L29 30L30 30L30 31L31 31L31 28L33 28L33 29L34 29L34 28L35 28L35 30L34 30L34 31L33 31L33 30L32 30L32 33L31 33L31 32L30 32L30 33L31 33L31 34L33 34L33 35L34 35L34 38L35 38L35 39L34 39L34 40L35 40L35 41L37 41L37 42L35 42L35 43L36 43L36 45L38 45L38 46L40 46L40 48L39 48L39 47L38 47L38 48L39 48L39 49L41 49L41 46L40 46L40 45L38 45L38 43L37 43L37 42L39 42L39 43L40 43L40 44L41 44L41 43L42 43L42 45L43 45L43 41L44 41L44 39L45 39L45 38L44 38L44 39L43 39L43 37L44 37L44 35L42 35L42 36L40 36L40 35L41 35L41 33L43 33L43 32L44 32L44 33L46 33L46 31L47 31L47 32L48 32L48 33L49 33L49 34L50 34L50 31L51 31L51 30L49 30L49 29L50 29L50 28L51 28L51 27L50 27L50 28L49 28L49 29L48 29L48 31L47 31L47 29L45 29L45 31L43 31L43 32L42 32L42 31L41 31L41 28L42 28L42 30L44 30L44 29L43 29L43 28L44 28L44 26L43 26L43 25L44 25L44 24L43 24L43 23L45 23L45 20L43 20L43 19L46 19L46 18L45 18L45 16L46 16L46 14L47 14L47 12L50 12L50 13L51 13L51 11L49 11L49 10L48 10L48 11L46 11L46 10L45 10L45 9L43 9L43 8L42 8L42 5L41 5L41 8L42 8L42 9L43 9L43 10L45 10L45 11L43 11L43 13L42 13L42 12L41 12L41 11L40 11L40 14L39 14L39 15L38 15L38 13L39 13L39 10L41 10L41 9L39 9L39 8L38 8L38 10L36 10L36 11L35 11L35 12L38 12L38 13L37 13L37 14L36 14L36 15L33 15L33 13L34 13L34 14L35 14L35 13L34 13L34 12L33 12L33 11L34 11L34 10L35 10L35 9L34 9L34 10L32 10L32 14L31 14L31 12L30 12L30 13L29 13L29 12L27 12L27 11L25 11L25 10L26 10L26 9L25 9L25 10L23 10L23 9L24 9L24 4L25 4L25 3L24 3L24 2L23 2L23 3L22 3L22 2ZM34 3L34 5L35 5L35 3ZM36 4L36 5L37 5L37 7L38 7L38 6L39 6L39 7L40 7L40 6L39 6L39 5L37 5L37 4ZM25 5L25 8L28 8L28 5ZM9 6L9 7L10 7L10 6ZM13 6L13 7L14 7L14 6ZM16 6L16 7L17 7L17 8L18 8L18 7L17 7L17 6ZM26 6L26 7L27 7L27 6ZM32 6L32 7L33 7L33 6ZM6 8L6 9L7 9L7 8ZM19 8L19 10L20 10L20 12L18 12L18 11L16 11L16 13L15 13L15 14L14 14L14 16L15 16L15 14L16 14L16 13L18 13L18 14L17 14L17 15L18 15L18 14L21 14L21 15L22 15L22 16L20 16L20 17L21 17L21 18L22 18L22 19L20 19L20 20L19 20L19 18L18 18L18 17L17 17L17 18L16 18L16 17L15 17L15 20L19 20L19 22L20 22L20 23L22 23L22 22L23 22L23 26L22 26L22 28L21 28L21 30L19 30L19 29L20 29L20 27L21 27L21 25L20 25L20 24L18 24L18 22L17 22L17 23L16 23L16 24L18 24L18 26L15 26L15 25L12 25L12 24L11 24L11 23L10 23L10 22L11 22L11 21L10 21L10 22L9 22L9 23L10 23L10 24L11 24L11 26L10 26L10 27L11 27L11 28L10 28L10 29L11 29L11 30L12 30L12 31L16 31L16 30L17 30L17 31L20 31L20 32L22 32L22 34L21 34L21 35L22 35L22 36L23 36L23 35L24 35L24 36L30 36L30 37L31 37L31 36L30 36L30 35L29 35L29 34L27 34L27 33L26 33L26 34L25 34L25 33L23 33L23 32L22 32L22 28L24 28L24 29L23 29L23 30L24 30L24 29L25 29L25 32L28 32L28 30L29 30L29 28L31 28L31 27L32 27L32 26L34 26L34 27L33 27L33 28L34 28L34 27L35 27L35 28L37 28L37 27L36 27L36 25L37 25L37 26L38 26L38 28L39 28L39 29L40 29L40 27L41 27L41 25L43 25L43 24L42 24L42 23L41 23L41 22L44 22L44 21L41 21L41 20L39 20L39 19L42 19L42 17L43 17L43 15L44 15L44 16L45 16L45 14L46 14L46 12L45 12L45 13L43 13L43 15L42 15L42 14L40 14L40 15L39 15L39 16L37 16L37 17L34 17L34 16L33 16L33 15L32 15L32 16L31 16L31 20L33 20L33 21L28 21L28 22L29 22L29 24L24 24L24 23L25 23L25 21L27 21L27 19L28 19L28 17L30 17L30 14L29 14L29 13L27 13L27 12L26 12L26 14L24 14L24 11L23 11L23 10L22 10L22 9L23 9L23 8L21 8L21 10L20 10L20 8ZM36 8L36 9L37 9L37 8ZM17 9L17 10L18 10L18 9ZM28 9L28 11L29 11L29 9ZM5 11L5 12L7 12L7 13L9 13L9 17L11 17L11 16L12 16L12 15L10 15L10 14L11 14L11 13L10 13L10 12L8 12L8 11ZM21 11L21 12L22 12L22 13L21 13L21 14L22 14L22 13L23 13L23 12L22 12L22 11ZM26 15L26 16L25 16L25 17L24 17L24 18L23 18L23 19L22 19L22 20L25 20L25 19L26 19L26 18L27 18L27 17L26 17L26 16L29 16L29 15ZM49 15L49 17L50 17L50 15ZM22 16L22 17L23 17L23 16ZM39 16L39 17L37 17L37 18L36 18L36 19L34 19L34 17L32 17L32 18L33 18L33 20L34 20L34 21L33 21L33 22L34 22L34 23L33 23L33 24L32 24L32 25L31 25L31 24L30 24L30 25L29 25L29 27L30 27L30 26L32 26L32 25L34 25L34 26L35 26L35 25L34 25L34 23L35 23L35 20L36 20L36 21L38 21L38 22L36 22L36 24L37 24L37 25L38 25L38 24L39 24L39 25L41 25L41 23L38 23L38 22L39 22L39 20L37 20L37 18L39 18L39 17L40 17L40 18L41 18L41 16ZM1 17L1 18L2 18L2 17ZM25 17L25 18L24 18L24 19L25 19L25 18L26 18L26 17ZM17 18L17 19L18 19L18 18ZM29 18L29 20L30 20L30 18ZM3 21L3 23L4 23L4 24L5 24L5 22L7 22L7 21L5 21L5 22L4 22L4 21ZM14 21L14 23L15 23L15 22L16 22L16 21ZM20 21L20 22L22 22L22 21ZM40 21L40 22L41 22L41 21ZM46 21L46 22L47 22L47 21ZM12 22L12 23L13 23L13 22ZM30 22L30 23L32 23L32 22ZM6 23L6 24L7 24L7 23ZM37 23L37 24L38 24L38 23ZM5 25L5 28L8 28L8 25ZM25 25L25 28L28 28L28 25ZM45 25L45 28L48 28L48 25ZM6 26L6 27L7 27L7 26ZM11 26L11 27L12 27L12 28L11 28L11 29L12 29L12 28L13 28L13 27L14 27L14 28L15 28L15 26L13 26L13 27L12 27L12 26ZM19 26L19 27L20 27L20 26ZM26 26L26 27L27 27L27 26ZM39 26L39 27L40 27L40 26ZM42 26L42 27L43 27L43 26ZM46 26L46 27L47 27L47 26ZM16 27L16 28L17 28L17 30L18 30L18 29L19 29L19 28L17 28L17 27ZM13 29L13 30L14 30L14 29ZM26 29L26 31L27 31L27 30L28 30L28 29ZM37 30L37 31L36 31L36 32L33 32L33 33L35 33L35 34L34 34L34 35L37 35L37 36L35 36L35 38L37 38L37 37L38 37L38 39L37 39L37 41L40 41L40 42L41 42L41 41L42 41L42 39L39 39L39 37L38 37L38 36L39 36L39 35L37 35L37 34L38 34L38 32L39 32L39 33L41 33L41 31L40 31L40 30L39 30L39 31L38 31L38 30ZM39 31L39 32L40 32L40 31ZM48 31L48 32L49 32L49 31ZM12 32L12 33L13 33L13 32ZM14 32L14 33L15 33L15 32ZM36 32L36 33L37 33L37 32ZM0 33L0 34L1 34L1 33ZM6 33L6 34L7 34L7 35L5 35L5 36L7 36L7 37L6 37L6 38L8 38L8 36L7 36L7 35L9 35L9 36L10 36L10 34L8 34L8 33ZM51 33L51 34L52 34L52 33ZM22 34L22 35L23 35L23 34ZM46 34L46 35L45 35L45 36L46 36L46 35L47 35L47 37L46 37L46 38L47 38L47 39L49 39L49 38L51 38L51 37L52 37L52 36L51 36L51 35L47 35L47 34ZM15 35L15 36L16 36L16 35ZM49 36L49 37L50 37L50 36ZM40 37L40 38L41 38L41 37ZM10 38L10 39L11 39L11 38ZM23 38L23 40L22 40L22 41L25 41L25 38ZM29 38L29 39L30 39L30 38ZM32 38L32 39L33 39L33 38ZM6 39L6 40L7 40L7 39ZM8 39L8 40L9 40L9 39ZM38 39L38 40L39 40L39 39ZM40 40L40 41L41 41L41 40ZM10 41L10 42L11 42L11 41ZM12 41L12 42L13 42L13 43L12 43L12 44L13 44L13 45L15 45L15 44L14 44L14 42L13 42L13 41ZM22 42L22 44L23 44L23 46L22 46L22 49L24 49L24 48L23 48L23 46L24 46L24 44L23 44L23 43L24 43L24 42ZM25 42L25 44L27 44L27 42ZM49 42L49 45L50 45L50 42ZM28 43L28 44L29 44L29 43ZM52 43L52 44L53 44L53 43ZM8 44L8 45L9 45L9 44ZM25 45L25 48L28 48L28 45ZM45 45L45 48L48 48L48 45ZM26 46L26 47L27 47L27 46ZM30 46L30 47L29 47L29 48L30 48L30 49L28 49L28 50L31 50L31 49L33 49L33 48L31 48L31 46ZM46 46L46 47L47 47L47 46ZM50 46L50 48L49 48L49 50L48 50L48 52L49 52L49 51L50 51L50 52L51 52L51 51L50 51L50 48L51 48L51 49L52 49L52 48L51 48L51 46ZM16 47L16 49L18 49L18 51L19 51L19 49L21 49L21 48L19 48L19 47L18 47L18 48L17 48L17 47ZM18 48L18 49L19 49L19 48ZM8 49L8 53L9 53L9 52L10 52L10 53L11 53L11 52L10 52L10 49ZM42 51L42 52L43 52L43 51ZM0 0L0 7L7 7L7 0ZM1 1L1 6L6 6L6 1ZM2 2L2 5L5 5L5 2ZM53 0L46 0L46 7L53 7ZM52 1L47 1L47 6L52 6ZM51 2L48 2L48 5L51 5ZM0 53L7 53L7 46L0 46ZM1 52L6 52L6 47L1 47ZM2 51L5 51L5 48L2 48Z" fill="#000000"/></g></g></svg>
